/* XPM */
static char *_d4df3b90fb7423195eb8b5cb62193a8Uqe60K5e1p9YeLQd[] = {
/* columns rows colors chars-per-pixel */
"64 64 219 2 ",
"   c None",
".  c black",
"X  c #040404",
"o  c #0C0C0C",
"O  c gray5",
"+  c #1A1700",
"@  c #1F1C00",
"#  c #111111",
"$  c gray9",
"%  c #181818",
"&  c #191919",
"*  c gray10",
"=  c #1C1C1A",
"-  c #272300",
";  c #2D2600",
":  c #2F2A00",
">  c #2E2A01",
",  c #23200A",
"<  c #2A270E",
"1  c #302000",
"2  c #313200",
"3  c #292714",
"4  c #302613",
"5  c #202020",
"6  c #222222",
"7  c #232323",
"8  c gray14",
"9  c #252525",
"0  c gray15",
"q  c #272727",
"w  c #282828",
"e  c gray17",
"r  c #2D2D2D",
"t  c gray18",
"y  c #2F2F2F",
"u  c gray19",
"i  c #323232",
"p  c gray20",
"a  c gray22",
"s  c #3C3C3C",
"d  c #3F3F3F",
"f  c #452E00",
"g  c #493000",
"h  c #553900",
"j  c #4A4300",
"k  c #4B4400",
"l  c #564E00",
"z  c #564E08",
"x  c #645A00",
"c  c #655B00",
"v  c #6C5A00",
"b  c #775304",
"n  c #795200",
"m  c #795300",
"M  c #7B5E00",
"N  c #706500",
"B  c #7C6400",
"V  c #746900",
"C  c #766A00",
"Z  c #796D00",
"A  c #796F00",
"S  c #7A6E00",
"D  c #7C6E00",
"F  c #767A00",
"G  c #4C4A3C",
"H  c #504F3D",
"J  c #655535",
"K  c #414141",
"L  c #444444",
"P  c gray28",
"I  c #484848",
"U  c #494949",
"Y  c gray29",
"T  c #4D4D48",
"R  c #4C4C4C",
"E  c gray30",
"W  c gray31",
"Q  c #54524E",
"!  c gray33",
"~  c gray35",
"^  c #5D5D5D",
"/  c #5F5F5F",
"(  c #655A40",
")  c #70685B",
"_  c #626262",
"`  c gray39",
"'  c gray40",
"]  c DimGray",
"[  c gray43",
"{  c #856B00",
"}  c #8F7600",
"|  c #8E7601",
" . c #947800",
".. c #997B01",
"X. c #9B7B00",
"o. c #906918",
"O. c #A97100",
"+. c #A97200",
"@. c #A57E2E",
"#. c #88785A",
"$. c #9A9F00",
"%. c #A08101",
"&. c #B0A700",
"*. c #CC9100",
"=. c #CD9100",
"-. c #CD9600",
";. c #D19200",
":. c #D79500",
">. c #E69900",
",. c #E99C00",
"<. c #EB9E00",
"1. c #DDAE00",
"2. c #F2A100",
"3. c #F2A400",
"4. c #F2A500",
"5. c #F1A700",
"6. c #F2A600",
"7. c #F1A900",
"8. c #F1AE00",
"9. c #EFBA00",
"0. c #F0B100",
"q. c #F0B200",
"w. c #F1B200",
"e. c #F0B500",
"r. c #F0BB00",
"t. c #EDB715",
"y. c #D69E31",
"u. c #ECB523",
"i. c #EBB52A",
"p. c #BDC300",
"a. c #C8C100",
"s. c #EDC800",
"d. c #EDCA00",
"f. c #ECD100",
"g. c #E9D61B",
"h. c #EAE200",
"j. c #E9EE00",
"k. c #E9EF00",
"l. c #E8F100",
"z. c #E8F200",
"x. c #E9F300",
"c. c #EAF300",
"v. c #E4ED2C",
"b. c #E8B044",
"n. c #E8B146",
"m. c #E7BE40",
"M. c #E5B559",
"N. c #E2BA6E",
"B. c #E3BB6F",
"V. c #CAC75B",
"C. c #E1E941",
"Z. c #E0E855",
"A. c #DDE36E",
"S. c #808080",
"D. c #818181",
"F. c #848484",
"G. c gray52",
"H. c gray53",
"J. c #898989",
"K. c gray54",
"L. c #8B8B8B",
"P. c gray55",
"I. c #909090",
"U. c #929292",
"Y. c gray58",
"T. c #959595",
"R. c gray60",
"E. c #AEA695",
"W. c #A4A4A4",
"Q. c #A5A5A5",
"!. c gray65",
"~. c #A7A7A7",
"^. c gray66",
"/. c #AAAAAA",
"(. c gray68",
"). c gray69",
"_. c gray70",
"`. c gray71",
"'. c #B7B7B7",
"]. c gray",
"[. c gray75",
"{. c #DBC495",
"}. c #DBC498",
"|. c #DAC79F",
" X c #DAD095",
".X c #D8DC95",
"XX c #D8DC97",
"oX c #DADE96",
"OX c #DBE080",
"+X c #DBE082",
"@X c #DCE181",
"#X c #D8C9AD",
"$X c #D8C9AF",
"%X c #D8CBAF",
"&X c #D6D9AF",
"*X c #D5CDBF",
"=X c gray76",
"-X c #C3C3C3",
";X c gray77",
":X c #C5C5C5",
">X c gray79",
",X c #CACACA",
"<X c #D2D2D2",
"1X c #D2D2D4",
"2X c gray83",
"3X c #D5D5D5",
"4X c gray90",
"5X c #E6E6E6",
"6X c #E9E9E9",
"7X c #EAEAEA",
"8X c gray92",
"9X c #EEEEEE",
"0X c gray94",
"qX c #F3F3F3",
"wX c gray96",
"eX c gray97",
"rX c #F8F8F8",
"tX c #F9F9F9",
"yX c gray98",
/* pixels */
"                                                          ^.p u u y u y T                                                       ",
"                                                          R.. . . . . . &                                                       ",
"                                                        7XW.. . . . . . & eX                                                    ",
"                                                        4XR.. . . . . . & 7X                                                    ",
"                                                    8 8 w w 6 6 6 6 # . X 8 8 8 6 /                                             ",
"                                                    . . . K ,X,X,X,X] . . . . . . Y                                             ",
"                                                  . . . . K <X<X<X<X[ . . . . . . E                                             ",
"                                                  . . . . K <X<X<X<X[ . . . . . . Y 4X                                          ",
"                                            P.Y a y y 4 1 J $X$X$X$X#.1 1 f g ; - < w p                                         ",
"                                            / . $ <X<XM.2.2.2.2.2.2.2.2.2.2.2.} Z l . O                                         ",
"                                            / . $ <X<XM.2.2.2.2.2.2.2.2.2.2.2.} Z l . O                                         ",
"                                          eX' . $ <X<XM.2.2.2.2.2.2.2.2.2.2.2.} Z l . O                                         ",
"                                        ! u s L Q }.}.m.9.t.b.b.b.b.u.r.e.2.2.} Z l . O                                         ",
"                                        6 . [ <X*X2.2.f.l.C.<X<X<X<XA.l.h.2.2.} Z l . O                                         ",
"                                        8 . [ <X*X2.2.f.l.C.<X<X<X<XA.l.h.2.2.} Z l . O                                         ",
"                                        8 . [ <X*X2.2.f.l.C.<X<X<X<XA.l.h.2.2.} Z l . O                                         ",
"                                        8 . ) $X|.q.q.g.v.Z.&X&X%X$XV.p.a.q.q.%.} B : > & &                                     ",
"                                        8 . n 2.7.l.l.OX1XXXl.j.8.2.n . 2 l.l.q.2.*.Z V . . J.                                  ",
"                                        8 . n 2.7.l.l.OX<X.Xl.j.8.2.n . 2 l.l.q.2.*.Z V . . S.                                  ",
"                                  tX0XtXq . m 2.7.l.l.OX<X.Xl.j.8.2.n . 2 l.l.q.2.*.Z V . . G.                                  ",
"                                  W.. . w u o.2.7.l.l.OX<X.Xl.j.8.2.m . 2 l.l.q.2.*.Z V . . P.                                  ",
"                                  (.. . `.<XN.2.6.l.l.OX<X.Xl.j.8.2.m . 2 l.l.q.2.*.Z V . . G.                                  ",
"                                  _.. . `.<XN.2.2.l.l.OX<X.Xl.j.8.2.m . 2 l.l.q.2.*.Z V . . S.                                  ",
"                                  ^.. . `.<XN.2.6.l.l.OX<X.Xl.j.8.2.m . 2 l.l.q.2.*.Z V . . J.                                  ",
"                                  W.. . `.<XN.2.6.l.l.@X<X.Xl.j.8.2.m . 2 l.l.q.2.*.Z V . .                                     ",
"                                  ).. . `.<XN.2.6.l.l.OX<X.Xl.j.8.2.m . 2 l.l.q.2.*.Z V . .                                     ",
"                                  ).. . `.<XN.2.6.l.l.OX<X.Xl.j.8.2.m . 2 l.l.q.2.*.Z V . .                                     ",
"                                  W.. . `.<XN.2.6.l.l.OX<X.Xl.j.8.2.m . 2 l.l.q.2.*.Z V . .                                     ",
"                                  ^.. . `.2XN.2.7.l.l.OX<X.Xl.j.8.2.m . 2 l.l.q.2.*.Z V . .                                     ",
"                                  `.. . `.<XN.2.7.l.l.OX<X.Xl.j.8.2.m . 2 l.l.q.2.*.Z V . .                                     ",
"                                  ^.. . `.<XN.2.7.l.l.OX<X.Xl.j.8.2.m . 2 l.l.q.2.*.Z V . .                                     ",
"                                  W.. . `.<XN.2.7.l.l.OX<X.Xl.j.8.2.m . 2 l.l.q.2.*.Z V . .                                     ",
"                                  ).. . '.2XB.2.7.c.l.+X3XXXl.j.8.2.m . 2 c.c.q.2.*.Z V . .                                     ",
"                                  _.. . `.<XN.2.7.l.l.+X<XXXl.j.8.2.m . 2 l.l.q.2.*.Z V . .                                     ",
"                                  W.. . `.1XN.2.7.l.l.+X<XXXl.j.8.2.m . 2 l.l.q.2.*.Z V . .                                     ",
"                                tX^.. . `.<XN.2.7.l.l.A.<X.Xl.j.8.2.m . 2 l.l.q.2.*.Z V . .                                     ",
"                                  _.. . `.<XN.2.7.l.l.+X<X.Xl.j.8.2.m . 2 l.l.q.2.*.Z V . .                                     ",
"                                  (.. . `.<XN.2.7.l.l.+X<X.Xl.j.8.2.m . 2 l.l.q.2.*.Z V . .                                     ",
"                                  W.. . `.<XB.2.7.l.l.@X<X.Xl.j.8.2.m . 2 l.l.q.2.*.Z V . .                                     ",
"                                  (.. . `.<XN.2.7.l.l.@X<X.Xl.j.8.2.m . 2 l.l.q.2.*.Z V . .                                     ",
"                                  _.. . `.<XN.2.7.l.l.OX<X Xd.d.7.2.n . 2 l.l.q.2.*.Z V . .                                     ",
"                                  W.. . `.<XN.2.7.l.l.OX<X{.2.2.2.2.n . 2 l.l.q.2.*.Z V . . J.                                  ",
"                                  W.. . `.<XN.2.7.l.l.OX<X{.2.2.2.2.m . 2 l.l.q.2.*.Z V . . P.                                  ",
"                                  `.. . `.<XN.2.7.l.l.OX<X{.2.2.2.2.m . 2 l.l.q.2.*.Z V . . S.                                  ",
"                                    Y.U.` ~ @.2.7.l.l.OX1X{.2.2.2.2.m . 2 l.l.q.2.*.Z V . . G.                                  ",
"                                      9X8 . n 2.7.l.l.OX<X{.2.2.2.2.m . 2 l.l.q.2.*.Z V . . P.                                  ",
"                                        8 . n 2.7.l.l.OX<X{.2.2.2.2.m . 2 l.l.q.2.*.Z V . . J.                                  ",
"                                        8 . m 2.7.l.l.OX<X{.2.2.2.2.m . 2 l.l.e.2.*.Z C . . S.                                  ",
"                                        q . n 2.6.l.l.@X1XE.h h h h Z $.&.q.q.%.} v + , -X*X                                    ",
"                                        8 . n 3.7.l.l.+X1XT.. . . . F l.h.2.2.} Z z . O rX                                      ",
"                                        q . m 3.5.l.l.+X1XT.. . . . F l.h.2.2.} Z l . O 9X                                      ",
"                                        8 . m 3.5.l.k.A.1XT.. X . . F l.h.2.2.} Z l . O                                         ",
"                                        8 . m 2.4.r.r.i.n.y.+.+.+.+.-.r.1... .D Z l . O                                         ",
"                                        8 . m 2.2.2.2.2.2.2.2.2.2.2.2.2.:.Z Z Z Z l . O                                         ",
"                                        8 . n 2.2.2.2.2.2.2.2.2.2.2.2.2.:.Z Z Z Z l . O 8X                                      ",
"                                        8 . b >.>.>.>.,.,.<.<.<.<.<.<.<.;.V V V N z & 8 qX                                      ",
"                                        W.U.( g g g g M X.X.....X.X.X.X.{ - - - @ G :X-X                                        ",
"                                          0X` . . . . j Z Z C A Z Z Z Z x . . . . Y                                             ",
"                                            ] . . . . k Z Z A A Z Z Z Z c . . . . Y                                             ",
"                                            ` . . . . k Z D D D Z Z D D c . . . . E                                             ",
"                                                ].:X=XG + + + + + + + + 3 :X;X                                                  ",
"                                                    eXI . . . . . . . . &                                                       ",
"                                                      Y . . . . . . . . &                                                       ",
"                                                      ! . . . . . . . . =                                                       "
};
