/* XPM */
static char *abbdee4f60e64b40bdff4e066f227f28heGpve1rr0G2tMgk[] = {
/* columns rows colors chars-per-pixel */
"64 64 124 2 ",
"   c None",
".  c #36332D",
"X  c #3E3728",
"o  c #3D372B",
"O  c gray19",
"+  c #4C3E20",
"@  c #433A28",
"#  c #5B4519",
"$  c #7C570E",
"%  c #644A15",
"&  c #6E4F11",
"*  c #60491B",
"=  c #634B1B",
"-  c #60491C",
";  c #6A4F19",
":  c #735211",
">  c #705216",
",  c #7D5911",
"<  c #73561B",
"1  c #514120",
"2  c #534220",
"3  c #504123",
"4  c #564420",
"5  c #534C3D",
"6  c #6D5524",
"7  c #6A5428",
"8  c #715722",
"9  c #615235",
"0  c #715D36",
"q  c gray27",
"w  c #494742",
"e  c gray31",
"r  c #585142",
"t  c gray33",
"y  c #5B5B5B",
"u  c gray36",
"i  c gray37",
"p  c #5F5F5F",
"a  c #756E5F",
"s  c #656565",
"d  c #676767",
"f  c #6A6A6A",
"g  c #6C6C6C",
"h  c #6F6F6F",
"j  c #717171",
"k  c #727272",
"l  c gray45",
"z  c gray46",
"x  c #767676",
"c  c #7B7B7B",
"v  c #7C7C7C",
"b  c gray50",
"n  c #855901",
"m  c #875A01",
"M  c #885B01",
"N  c #8A5C01",
"B  c #8C5D01",
"V  c #8D5F01",
"C  c #8A5E05",
"Z  c #895F0B",
"A  c #805B12",
"S  c #8F6001",
"D  c #8C610A",
"F  c #946301",
"G  c #966401",
"H  c #966606",
"J  c #996601",
"K  c #9C6901",
"L  c #9E6A01",
"P  c #996805",
"I  c #9D6A04",
"U  c #906309",
"Y  c #A36D01",
"T  c #82807B",
"R  c #808080",
"E  c gray51",
"W  c #868686",
"Q  c gray53",
"!  c #898989",
"~  c #8B8B8B",
"^  c #8D8D8D",
"/  c #8E8E8E",
"(  c gray56",
")  c #929292",
"_  c #939393",
"`  c #979797",
"'  c #989898",
"]  c gray60",
"[  c #9A9A9A",
"{  c gray61",
"}  c gray62",
"|  c #9F9F9F",
" . c gray63",
".. c #A2A2A2",
"X. c #A4A4A4",
"o. c gray65",
"O. c #A7A7A7",
"+. c gray66",
"@. c #A9A9A9",
"#. c gray67",
"$. c #ACACAC",
"%. c #AEAEAE",
"&. c #AFAFAF",
"*. c #B1B1B1",
"=. c #B2B2B2",
"-. c gray71",
";. c #B6B6B6",
":. c #B7B7B7",
">. c #B9B9B9",
",. c #BCBCBC",
"<. c gray74",
"1. c gray",
"2. c gray75",
"3. c #C0C0C0",
"4. c #C1C1C1",
"5. c gray76",
"6. c #C5C5C5",
"7. c #C6C6C6",
"8. c #CACACA",
"9. c #CBCBCB",
"0. c #CDCDCD",
"q. c #CECECE",
"w. c #D5D5D5",
"e. c gray87",
/* pixels */
"                                              e e e e e e e e e e e e e e e e e e                                               ",
"                                      e e e t R ` y t ! ` ` ' ' ' ' ` ` ! e y ' R e e e e                                       ",
"                                e e e j c / `  .O.u e ` O.O.X.O.O.5.,.O.` e u O.` c c c j e e e                                 ",
"                              s g x b Q ! 5.e.>.O.u e ` O.-.:.O.O.e.w.O.` t u O.O.O.{ ! R g g g s                               ",
"                        e e e c O.5.e.v e %.e.>.O.u e ` O.w.e.O.O.e.w.O.' e u O.O.O.Q e f O.O.O.c e e e                         ",
"                    e e e ` e.5.X.O.O.X.O.g e e e t e e e e e e e e e e e e e e e e g O.O.O.5.e.5.O.c e e e                     ",
"                e f ` ' ' v s Q O.O.O.x u t e 6 $ $ $ $ $ $ $ $ $ $ $ $ $ $ $ $ 6 e t u x O.+.*.Q u c ` -.8.c t                 ",
"            e u ! | 8.5.+.' ! v g g g 0 < < < D G N n F J J J J J J J J G n N J D < < < 0 f g g c ! ' O.*.>.' ! u e             ",
"            g j ! | 9.-.! ! ! a 9 9 9 A V S S L Y N n L Y Y Y Y Y Y Y Y L n N Y J S S S A 9 9 9 a ! ! ! | O.` ! R v             ",
"        s j O.' u j ` T r r r 8 N N n J Y Y Y Y Y N n L Y Y Y Y Y Y Y Y L n N Y Y Y Y Y J n N N 8 r r r T ' g u 5.w.j u         ",
"    e s e.w.O.O.O.Q e 9 n n n F Y F n J Y Y Y Y Y N n L Y Y Y Y Y Y Y Y L n N Y Y Y Y Y J n F Y F n n n 9 e ! O.O.O. .O.y e     ",
"e e O.` e t e e t 9 n V Y Y Y Y Y F n J Y Y Y Y Y N n L Y Y Y Y Y Y Y Y L n N Y Y Y Y Y J n F Y Y Y Y Y V n 9 e t e e e ` O.e t ",
"e e O. .! ! ! b e 9 n V Y Y Y Y Y F n J Y Y Y Y Y N n L Y Y Y Y Y Y Y Y L n N Y Y Y Y Y J n F Y Y Y Y Y S n 9 e v Q ! !  .O.e e ",
"e e O.+.5.,.O.` e 9 n V Y Y Y Y Y F n J Y Y Y Y Y N n L Y Y Y Y Y Y Y Y L n N Y Y Y Y Y J n F Y Y Y Y Y S n 9 e ' O.O.O.<.5.e e ",
"e e '  .w.9.O.' e 9 n V Y Y Y Y Y F n J Y Y Y Y Y N n L Y Y Y Y Y Y Y Y L n N Y Y Y Y Y J n F Y Y Y Y Y S n 9 e  .%.O.O.8.w.e e ",
"e e t u O.O.O.' e 9 n F Y Y Y Y Y F n J Y Y Y Y Y N n L Y Y Y Y Y Y Y Y L n N Y Y Y Y Y J n F Y Y Y Y Y S n 9 e 7.e.%.O.O.O.e e ",
"e e O.` e e e e e 9 n S Y Y Y Y Y F n J Y Y Y Y Y N n L Y Y Y Y Y Y Y Y L n N Y Y Y Y Y J n F Y Y Y Y Y V n 9 e e e e e e e e e ",
"e e O.O.` ` ' ! e 9 n S Y Y Y Y Y F n J Y Y Y Y Y N n L Y Y Y Y Y Y Y Y L n N Y Y Y Y Y J n F Y Y Y Y Y V n 9 e ~ ' ` ` ` ' e e ",
"e e O.+.5.<.O.' e 9 n S Y Y Y Y Y F n J Y Y Y Y Y N n L Y Y Y Y Y Y Y Y L n N Y Y Y Y Y J n F Y Y Y Y Y F n 9 e ' O.O.O.O.O.e e ",
"e e ! / %.+.! R e 9 n S Y Y Y Y Y F n J Y Y Y Y Y N n L Y Y Y Y Y Y Y Y L n N Y Y Y Y Y J n F Y Y Y Y Y V n 9 e ' O.O.X./ ! e e ",
"e e e t e e e e e 9 n S Y Y Y Y Y F n J Y Y Y Y Y N n L Y Y Y Y Y Y Y Y L n N Y Y Y Y Y J n F Y Y Y Y Y V n 9 e ` O.O.O.u e e e ",
"e e e.w.O.O.O.` e 9 n S Y Y Y Y Y F n J Y Y Y Y Y N n L Y Y Y Y Y Y Y Y L n N Y Y Y Y Y J n F Y Y Y Y Y 2 . q e e e e e ' O.e e ",
"e e %.-.w.0.O.` e 9 n S Y Y Y Y Y F n J Y Y Y Y Y N n L Y Y Y Y Y Y Y Y L n N Y Y Y Y Y J n % @ @ @ @ @ . O q e ! ' ` ' 8.w.e e ",
"e e O.+.>.-.O.` e 9 n S Y Y Y Y Y F n J Y Y Y Y Y N n L Y Y Y Y Y Y Y Y L n N Y Y Y Y Y J n # O O O O O O O q e ` O.7.8.,.>.e e ",
"e e O.| ! ! ! R t 9 n V Y Y Y Y Y F n J Y Y Y Y Y N n L Y Y Y Y Y Y Y Y L n N Y Y Y Y Y J n & 4 4 4 4 2 X O q e b ! 3.9.$.O.e e ",
"e e ` / s s u u e 9 n V Y Y Y Y Y F n J Y Y Y Y Y N n L Y Y Y Y Y Y Y Y L n N Y Y Y Y Y J n F Y Y Y Y Y - X w e u u / ` ' ' e e ",
"e e e s e.w.O.' e 9 n V Y Y Y Y Y F n J Y Y Y Y Y N n L Y Y Y Y Y Y Y Y L n N Y Y Y Y Y J n F Y Y Y Y Y S n 9 e ' O.u e e e e e ",
"e e O.O.O.%.e.7.e 9 n S Y Y Y Y Y F n J Y Y Y Y Y N n L Y Y Y Y Y Y Y Y L n N Y Y Y Y Y J n F Y Y Y Y Y S n 9 e ' O.O.O.O.O.e e ",
"e e  .O.O.+.>.+.e 9 n S Y Y Y Y Y F n J Y Y Y Y Y N n L Y Y Y Y Y Y Y Y L n N Y Y Y Y Y J n F Y Y Y Y Y S n 9 e ` O.O.O.O.O.e e ",
"e e c c v R O.' e 9 n S Y Y Y Y Y F n J Y Y Y Y Y N n L Y Y Y Y Y Y Y Y L n N Y Y Y Y Y J n F Y Y Y Y Y S n 9 e ` O.O.O.X.O.e e ",
"e e u s s j ' ! e 9 n S Y Y Y Y Y F n J Y Y Y Y Y N n L Y Y Y Y Y Y Y Y L n N Y Y Y Y Y J n F Y Y Y Y Y V n 9 e ` O.' ' ` ` e e ",
"e e O.%.e.7.e e e 9 n S Y Y Y Y Y F n J Y Y Y Y Y N n L Y Y Y Y Y Y Y Y L n N Y Y Y Y Y J n G Y Y Y Y Y V n 9 e ` O.u e e e e e ",
"e e O.O.O.X.O.' e 9 n S Y Y Y ; O O O O O , Y Y Y N n L Y Y Y Y Y Y Y Y L n N Y Y Y Y Y J n F Y Y Y Y Y S n 9 e e e ' O.O.O.e e ",
"e e X.O.O.O.O.' e 9 n S Y Y Y H U - O > U I Y Y Y N n L Y Y Y Y Y Y Y Y L n N Y Y Y Y Y J n F Y Y Y Y Y S n 9 e ~ '  .O.9.w.e e ",
"e e c c c b O.' e 9 n S Y Y Y Y Y ; O , Y Y Y Y Y N n L Y Y Y Y Y Y Y Y L n N Y Y Y Y Y J n F Y Y Y Y Y S n 9 e ' O.O.O.,.5.e e ",
"e e g g g j ! v e 9 n F Y Y Y U , 4 O = , H Y Y Y N n L Y Y Y Y Y Y Y Y L n N Y Y Y Y Y J n F Y Y Y Y Y S n 9 e b ! ! ! ! ! e e ",
"e e O.O.O.` e e e 9 n S Y Y Y ; O O O O O , Y Y Y N n L Y Y Y Y Y Y Y Y L n N Y Y Y Y Y J n F Y Y Y Y Y F n 9 e e e e e e e e e ",
"e e O.X.O.X.O.` e 9 n S Y ; O ; Y F n J Y 4 O , Y N n L Y Y Y Y Y Y Y Y L n N Y Y Y Y Y J n F Y Y Y Y Y V n 9 e ` X.O.O.O.O.e e ",
"e e O.X.O.O.O.' e 9 n S Y ; O ; Y F n J Y 4 O , Y N n L Y Y Y Y Y Y Y Y L n N Y Y Y Y Y J n F Y Y Y Y Y V n 9 e ' O.O.O.O.O.e e ",
"e e g g g g g d e 9 n S Y U , ; # 3 + 2 2 > , H Y N n L Y Y Y Y Y Y Y Y L n N Y Y Y Y Y J n F Y Y Y Y Y S n 9 e -.8.+.O.x f e e ",
"e e g g g g g d e 9 n S Y Y Y , 2 3 + 2 4 Z Y Y Y N n L Y Y Y Y Y Y Y Y L n N Y Y Y Y Y J n F Y Y Y Y Y S n 9 e | %.) ! j g e e ",
"e e O.X.O.X.O.' e 9 n S Y Y Y Y Y F n J Y Y Y Y Y N n L Y Y Y Y Y Y Y Y L n N Y Y Y Y Y J n F Y Y Y Y Y S n 9 e u u u u ' O.e e ",
"e e O.O.O.X.O.` e 9 n S Y Y Y Y Y F n J Y Y Y Y Y N n L Y Y Y Y Y Y Y Y L n N Y Y Y Y Y J n F Y Y Y Y Y S n 9 e ' O.O.X.O.O.e e ",
"e e e.w.O.O.O.` e 9 n S Y Y Y Y Y F n J Y Y Y Y Y N n L Y Y Y Y Y Y Y Y L n N Y Y Y Y Y J n F Y Y Y Y Y S n 9 e ' O.O.O.w.e.e e ",
"e e e.9.f g g d e 9 n S Y Y Y Y Y F n J Y Y Y Y Y N n L Y Y Y Y Y Y Y Y L n N Y Y Y Y Y J n F Y Y Y Y Y V n 9 e s g { O.-.>.e e ",
"e e ` ) c c c l e 9 n S Y Y Y Y Y F n J Y Y Y Y Y N n L Y Y Y Y Y Y Y Y L n N Y Y Y Y Y J n F Y Y Y Y Y : # 5 e l c c v c c e e ",
"e e u f O.X.O.` e 9 n S Y Y Y Y Y F n J Y Y Y Y Y N n L Y Y Y Y Y Y Y Y L n N Y Y Y Y Y J n C U U U U U 3 O q e ' O.f u u u e e ",
"e e O.X.O.O.O.' e 9 n S Y Y Y Y Y F n J Y Y Y Y Y N n L Y Y Y Y Y Y Y Y L n N Y Y Y Y Y J n # O O O O O O O q e ' O.O.O.O.O.e e ",
"e e O.O.O.&.e.7.e 9 n S Y Y Y Y Y F n J Y Y Y Y Y N n L Y Y Y Y Y Y Y Y L n N Y Y Y Y Y J n # O O O O O O O q e ' O.O.O.w.e.e e ",
"e e u u p l e.7.e 9 n S Y Y Y Y Y F n J Y Y Y Y Y N n L Y Y Y Y Y Y Y Y L n N Y Y Y Y Y J n C U U U U U 3 O q e u u ' O.w.e.e e ",
"e e v v c v ` ~ e 9 n S Y Y Y Y Y F n J Y Y Y Y Y N n L Y Y Y Y Y Y Y Y L n N Y Y Y Y Y J n F Y Y Y Y Y : # 5 e l c c c ) ` e e ",
"e e O.O.O.{ g d e 9 n S Y Y Y Y Y F n J Y Y Y Y Y N n L Y Y Y Y Y Y Y Y L n N Y Y Y Y Y J n F Y Y Y Y Y S n 9 e ' O.x g g g e e ",
"e e O.O.X.O.O.' e 9 n S Y Y Y Y Y F n J Y Y Y Y Y N n L Y Y Y Y Y Y Y Y L n N Y Y Y Y Y J n F Y Y Y Y Y S n 9 e ` O.O.O.O.O.e e ",
"e e O.&.e.w.O.' e 9 n S Y Y Y Y Y F n J Y Y Y Y Y N n L Y Y Y Y Y Y Y Y L n N Y Y Y Y Y J n F Y Y Y Y Y S n 9 e ` O.X.O.O.X.e e ",
"e e u p s s u u e 9 n S Y Y Y Y Y F n J Y Y Y Y Y N n L Y Y Y Y Y Y Y Y L n N Y Y Y Y Y J n F Y Y Y Y Y S n 9 e ` O.0.w.j u e e ",
"e e ! ! ! ! ! b e 9 n S Y Y Y Y Y F n J Y Y Y Y Y N n L Y Y Y Y Y Y Y Y L n N Y Y Y Y Y J n F Y Y Y Y Y S n 9 e s g v b ! Q e e ",
"e e O.O.O.X.O.' e 9 n S Y Y Y Y Y F n J Y Y Y Y Y N n L Y Y Y Y Y Y Y Y L n N Y Y Y Y Y J n F Y Y Y Y Y V n 9 e d g g g $.>.e e ",
"e e ' ' O.O.O.' e 9 n S Y Y Y Y Y F n J Y Y Y Y Y N n L Y Y Y Y Y Y Y Y L n N Y Y Y Y Y J n F Y Y Y Y Y S n 9 e ' O.%.%.0.w.e e ",
"e e e u X.O.O.' e 9 n S Y Y Y Y Y F n J Y Y Y Y Y N n L Y Y Y Y Y Y Y Y L n N Y Y Y Y Y J n F Y Y Y Y Y S n 9 e ' O.w.e.%.O.e e ",
"e e e.7.e e e e e 9 n S Y Y Y Y Y F n J Y Y Y Y Y N n L Y Y Y Y Y Y Y Y L n N Y Y Y Y Y J n F Y Y Y Y Y S n 9 e e e 7.e.&.O.e e ",
"e e >.*.! ! ! v e 9 n N S S S S S N n B S S S V S N n V S S S S S S S V V n N V S S S S V n N S S S S S N n 9 e b ! b b h g e e ",
"e e 5.<.O.O.O.` e r 7 7 7 7 7 7 7 7 7 7 7 7 7 7 7 7 7 7 7 7 7 7 7 7 7 7 7 7 7 7 7 7 7 7 7 7 7 7 7 7 7 7 7 7 r e ' O.E c ) ` e e ",
"e e 7.<.' ' ' ! e e e e e e e e e e e e e e e e e e e e e e e e e e e e e e e e e e e e e e e e e e e e e e e e ~ ' ' ' <.7.e e ",
"e e e e e e e e e e e e e e e e e e e e e e e e e e e e e e e e e e e e e e e e e e e e e e e e e e e e e e e e e e e e e e e e "
};
