/* XPM */
static char *_52baeef99604c1f8a29f4261f493fb2bhTVRcOSyG20Lao9[] = {
/* columns rows colors chars-per-pixel */
"64 64 141 2 ",
"   c #583301",
".  c #6B3D01",
"X  c #744201",
"o  c #673B01",
"O  c #6F3F01",
"+  c #704001",
"@  c #6A3C01",
"#  c #744301",
"$  c #6E3E01",
"%  c #593301",
"&  c #6E3F01",
"*  c #6C3E01",
"=  c #734101",
"-  c #683B01",
";  c #6F4001",
":  c #5C3401",
">  c #543001",
",  c #663A01",
"<  c #724101",
"1  c #633801",
"2  c #693B01",
"3  c #422601",
"4  c #6D3E01",
"5  c #734201",
"6  c #6C3D01",
"7  c #5E3601",
"8  c #5E3501",
"9  c #653901",
"0  c #693C01",
"q  c #613701",
"w  c #5D3501",
"e  c #573201",
"r  c #613801",
"t  c #704101",
"y  c #673A01",
"u  c #6C3D00",
"i  c #6F3F00",
"p  c #714101",
"a  c #754201",
"s  c #5A3301",
"d  c #5B3401",
"f  c #643901",
"g  c #703F01",
"h  c #6B3C01",
"j  c #754301",
"k  c #603601",
"l  c #6E3E00",
"z  c #623801",
"x  c #5F3601",
"c  c #593201",
"v  c #553001",
"b  c #462801",
"n  c #6A3D01",
"m  c #5B3402",
"M  c #714001",
"N  c #6F4002",
"B  c #663901",
"V  c #512E01",
"C  c #4A2A01",
"Z  c #583201",
"A  c #5D3502",
"S  c #653A01",
"D  c #603701",
"F  c #532F01",
"G  c #4B2B01",
"H  c #553101",
"J  c #764301",
"K  c #563101",
"L  c #4C2C01",
"P  c #533001",
"I  c #6B3D00",
"U  c #623701",
"Y  c #563201",
"T  c #4E2D01",
"R  c #724001",
"E  c #522F01",
"W  c #6D3E00",
"Q  c #633902",
"!  c #774401",
"~  c #683C01",
"^  c #512F01",
"/  c #502E01",
"(  c #703F00",
")  c #6B3E01",
"_  c #704000",
"`  c #6D3F01",
"'  c #603702",
"]  c #764401",
"[  c #5A3401",
"{  c #522E01",
"}  c #5B3301",
"|  c #6B3C00",
" . c #633901",
".. c #4C2B01",
"X. c #6A3C02",
"o. c #5C3501",
"O. c #4F2D01",
"+. c #6D3D01",
"@. c #5F3701",
"#. c #643801",
"$. c #573101",
"%. c #633802",
"&. c #4D2D01",
"*. c #502D01",
"=. c #784401",
"-. c #6A3D02",
";. c #663B01",
":. c #653A02",
">. c #784501",
",. c #6E3F02",
"<. c #6C3E02",
"1. c #613702",
"2. c #593302",
"3. c #533002",
"4. c #5F3602",
"5. c #553002",
"6. c #522E02",
"7. c #744202",
"8. c #563001",
"9. c #794501",
"0. c #7A4601",
"q. c #5D3601",
"w. c #6F3E01",
"e. c #5E3602",
"r. c #724000",
"t. c #774402",
"y. c #6D3E02",
"u. c #724201",
"i. c #563102",
"p. c #774301",
"a. c #5F3501",
"s. c #6B3D02",
"d. c #643902",
"f. c #5D3401",
"g. c #6A3C00",
"h. c #4D2C01",
"j. c #492A01",
"k. c #714000",
"l. c #452801",
"z. c #5C3402",
"x. c #432601",
/* pixels */
"  . X o O + @ # $ O o % & O * # * = - ; * : > , + < ; @ @ 1 * 2 3 o 4 5 6 @ , - 7 8 9 O 0 . @ @ @ : q o w e r t y 4 u 4 9 & 4 @ ",
"% @ X 2 i p @ X & a & s 4 O 4 X . X o p 0 d e f & g + 4 0 , . h 3 @ & j . & f 0 k 7 , & h h 9 l @ % q - d s z + x @ @ * 0 4 6 . ",
"c . X . 4 < @ X + $ + s 4 O 6 5 @ X - g 0 % v o * 6 + & @ 2 0 4 b n O = + + f 0 z w , * . . , l 6 % f o s m 9 $ 8 , , @ . @ . . ",
"e - M + 6 + @ X p 6 N % 4 O y M - X B $ y e V n & n + 6 . - 4 + C . O < 5 M f 6 o Z , 0 . * . 4 & w 0 - e A 0 @ o 0 9 @ O . h 4 ",
"% z l M $ 4 . j < 4 O e , o s - k . w S D F e * + 6 + 0 n n * < G O $ < < M f O . v 9 0 - & 6 O @ 0 6 @ H x * @ @ 0 , 0 & . 6 O ",
"% k 6 + < . - J p 4 * K q 1 z @ d @ - 9 x > H . p $ M 2 2 O 0 j L O M & X < y ; . F z 0 2 + . < 1 0 6 @ P 1 4 I @ 9 9 o & 6 4 + ",
"s z . g a & - J < 4 0 K y 0 @ a U = + @ , Y > 0 p & M @ , 6 o 5 T O J . = < , O @ v q @ h g 4 R y & @ @ E S * W . Q q o & * * ; ",
"d D 4 M j $ , ! < 4 9 K . 6 @ a , a + 4 n e E @ 6 * 4 . y 0 . ~ Z 9 & + 4 M , . * Z x 6 i 4 < W X O @ , ^ ~ @ + * w D * & 6 6 $ ",
"x s + p 5 4 f ! < . x s 4 $ $ X - j O O 6 % / - h $ 4 6 4 O . q : - - 4 . O - h * > 7 4 ( 2 X 0 i - @ 1 F ) . + 4 w U M 4 - 6 * ",
", F ; p M @ 1 ! + . w 8 O 6 _ X @ J O O 4 o V x . & , 6 4 ` o ' % + . - 4 4 y . f v d 6 i y 6 4 z , 0 1 F . & p 9 z o & 4 o 6 4 ",
"0 V ` < M h y ] ` @ w D M . h X . J O + n 0 : [ . @ U $ 4 $ o z Z @ : , . 6 - @ f { } 0 i | @ 4 k 6 - - H . $ = 1 . 6 4 6 o 6 4 ",
"o E * p M 6 - ] . 6 s f < O - M 4 ] + 5 *  .S H 0 0 9 4 O 4 - r [ U D 1 . . . @ 6 ..s 0 X W . 6 - & 0 . e X.4 < f 4 2 O @ @ $ O ",
" .Y 4 + < 4 @ j n 4 % S < p < 5 & j M j . 1 f > 0 4 < . ; . 0 k d , 0 f . . 6 6 O L s n X + @ M @ M 0 * H n . + @ n @ & @ 6 & M ",
"w o.& M < O 0 X . & o.q = p j j . X < X n 9 d s . O ; 4 & y 6 1 s n 0 S 0 @ 4 & O O.} * M = 2 5 . M 2 O > 0 4 O O , 4 4 . 6 +.M ",
"% D & M 5 ; y = . p @.8 = M j X @ p < X . 9 e x * * - 4 O 1 & y Z n #.9 , 2 4 < * T d 4 _ 5 0 X . + @ + > 0 + 4 X . 4 6 . 4 . M ",
"$.r + + X p y M . l z [ < < a O + - p X n x V , 6 4 2 ` & 9 M o $.0 , , 9 0 * 5 n O.d 4 M < @ X @ M . + P ~ O & j & 4 - O & @ < ",
"> q + + < + - p * g q : M X X @ X y O < 0 f O.o O * * $ 4 @ M %.o.o y - 9 6 * & 4 O.: 6 M 4 - 5 @ + - & P - 4 M M & 4 2 < $ $ O ",
"> z O 4 p M * = 4 M 7 x M X < z J @ O M - D &.0 + f . 4 4 @ $ x q 0 - - o O * $ . O.$.[ k o.w q 8 x d 8 O., & 5 . . M h < 6 O O ",
"e D 4 * + + 4 X & ; w q M = < D j . $ 4 - w &.* +  .- * 4 6 . o.9 n @ - @ O n M o *.d A 0 , y , q f x y V 9 ; M 2 & 5 h < 0 g O ",
"% x * 6 $ + ; X < * o.z M O + f M + 4 @ . F T 4 & , 0 * 4 O 2 % 2 6 W - * * 0 < ~ / q S M 4 ; l * @ 1 $ v f M 4 * M a h M - 4 O ",
"Z D * 4 6 M + X 5 n s f M O 4 0 $ < & 0 4 E O.. . , 0 4 4 + @ % 0 . @ @ O . - p o V  .@ < & M M 4 * f + e  .p $ O & J 4 O @ @ O ",
"  d * $ 4 + * j 5 , Z S + < 4 O l M O 0 4 s V . @ , . O 4 M * d o . 2 . + @ @ M f V f @ < g 4 = . + 0 + Z  .M * + 4 =.$ 0 $ h O ",
"  } 6 O O t -.j 5 f c ;.+ = 4 < i i & 0 * w V * . . . + O M & [ 0 . l $ O 0 & & :.E S - < + @ X 6 M n M Z  .& 4 M & >.g - O . + ",
"e d @ g + < . ] # 9   f ; < 4 a & i & y 4 q *.6 6 . * M + < ,.d 4 @ 6 < h . O ` , V f 2 < M 0 # 4 + - < % z o 6 M 4 ! < 0 p 6 O ",
"  : 6 + ; p - J # , [ z + = 4 j O O O 9 O f P , M . O 4 & X <.x ~ @ 4 O h O O & @ /  .@ p p . p ; g - < d D 9 0 5 & J 5 - M +.6 ",
"s o.@ + 6 < 4 O j o [ D O X 6 ! O + & o O . % 1 4 & 6 6 W X . 1.q $ . 6 4 M & & . O.q 0 p M * _ + + y 5 w w q - a n J < 1 4 4 - ",
"v w 0 + @ < + n j , d 7 O 5 . J O < 4 - O 4 w z 2 @ 6 O @ X @ x x < 4 . O < & O 4 O.x 2 < + * g & p , < x H % 8 4 7 6 f s 1 D } ",
"o.w - + 0 < < - a , [ w + p . 5 + R 4 , O 6 8 @.. U $ < 0 X @ e 1 j O 4 O < @ + . / o.0 < O @ g 4 < o ; z K S w 6 d n 0 q + 4 - ",
"z o.~ O . < p - < , [ 2.M & 4 + p M & o O @ d q O x 5 < 6 X 0 3.o X 4 4 M O - M 2 E o.- < 4 @ i & M , O S Z 6  .! @.O . , < $ O ",
". w @ ; & 5 4 @ & 9 4.F p h l 6 < + O - + @ s z M U a < $ X - 5.- p @ O = n , M S K w o + 4 @ i & g 9 & , Z n y ! @ & * . X . M ",
"+ o.6 + O < O . 6 B %.*.; @ 4 @ 5 O . @ + - : o M U = p 4 j - c o * 6 $ p , S p f > q , + O 0 i * O 1 +.- s S , J O + 4 M J 0 R ",
"< % & O M + M n h y , 6.. 0 2 * ; M y 4 M f [ 0 g 9 R O 6 ! @ 4.f - 6 O O 9 S p @ ..f f O < o + 0 + , , , s D f 7.` 5 O X j 9 + ",
"; K O $ M & < 0 $ y o F , - S p @ + 1 & + f $.f + o = h @ =.O 1.f o @ M $ - z = * ..x f I X o M @ g 6 1 9 8.: o < n J i ] 4 q 2 ",
"* > O O < $ < @ + - n e f - , = h & q + < - e q 6 * + 0 h 9.M s o n 0 O O @  .& O O.w , h X - M . g g 9 f c q n < . ! 4 X g 9.6 ",
"0 H & g < 6 < 6 M o & % 1 0 2 = 6 4 1 M M . o.7 . ` O . & 0.5 $.0 . 0 O g h o * O E d 9 6 < - < 6 + M ,  .: 9 4 & & ! . < O J 5 ",
", Z + + < @ M O < @ M % z . & < h O - g R $ r Z * ` 4 * + 0.M e . n . O $ u . . O > c 9 4 4 @ < . + R y q w - O & j ! @ M $ X 1 ",
"q d < O < . & 5 < @ < c x O = * 4 X . 4 M &  .v . p 4 4 + >.4 s . @ . O & $ y 4 & K e B $ , . M - + M 0 x w @ @ M ! X +.M O & @ ",
"q.D 5 4 5 4 6 J M @ + v w < @ . + X M 6 M ; x F . < 4 4 < ] 4 w , @ 0 + O M z ; * [ Y , 6 9 2 ` @ + O @ x w & y $ ! < 4 M g * O ",
"d S p . 5 $ . J O . 6 K : a y n # + 5 $ M + o.E 4 = w.. = j $ e., 0 o & O X 1 + * d e o 2 2 @ ) 4 M O @ D w & 0 * ! r.4 < + f @ ",
"H n & 6 = O 4 t.4 < - } [ 5 9 . M $ 5 + O O w / @ 5 i 6 = 5 6 w , S @.* & p f * 4 d K 0 9 u @ . $ < & @ D 7 4 n 6 j M 4 5 4 U - ",
"^ 4 h 6 < 4 O 9.6 X - : @.+ M * y.$ 5 M = * 7 > S < 4 4 5 < * e 7 s P d q.7 K s 7   e 4 9 $ & 4 & u.. . q x . h & p + 4 = 0 , 1 ",
"V 4 ~ 4 M 2 O 9.. X . x r 4 J I 4 4 < < M 0 s   - M $ . X M 4 i.K S q 1 0 O 8 o * x Z & - + + 2 O = - . q x 0 $ O O O & + o 9 x ",
"P . o & p S i p.6 = @ D q * =.4 l 6 O < & 2 8 d . ; O @ X $ 4 e d . , @ + < q 4 & d K 4 0 O & f $ < 9 4 q 8 0 g O O & O + n 1 w ",
"Y @ , i < 1 i X 4 O y 7 a.4 g < +.$ 6 + & - q x * + + 0 = 6 O F f 4 4 4 J 5 - * . > $.4 . O . S . & o O  .d - + g 4 $ ; + - y d ",
"e n 2 6 M q O X 4 0 1 w 7 & + & & M . + O y k z . _ M 6 O O 6 E o $ & . J X . & o V % $ u & f +.. 6 . O f s - + = @ 4 + M , * 8 ",
"K f . f . o.4 X 6 k 8 o.@.O 5 O < + 4 + O o w f 6 + M g . O 6 Z @ 4 4 2 J ] - M U e d $ W u 1 l 6 . & 4 9 [ - + < 6 6 M 5 o 6 U ",
"$.2.1 : q $.7 , k % $.e D & p < + + + ; 4 ~ o.S 6 O M < @ + 6 x y 4 @ @ j j - < 1 7 o.4 g y q 6 $ 4 M * f [ @ _ < 4 6 R J 2 @ U ",
"e Z o 6 < , 1 s.y - x % z O - < . & < 4 & 0 d d.@ $ + p . + & f q O - ; 5 j 4 = 0 o.7 6 & z 9 @ $ $ < h r % . + O . @ O ! @ n f ",
"$.A & O 5 0 - ! . * q w 9 ; S O - + & & O 0 d z * 6 4 M 6 < & 0 7 O @ 5 u.< $ p 4 s x 4 2 6 @ n l 6 < . D d 6 O & 4 o $ ! 6 @ 2 ",
"[ z M 4 = n & j * @ z d - ; f g 2 & . O & @ > x O $ 4 + 4 M * 9  .& . J ` < O g O % w 4 S a . $ + . < . 7 d $ O h n . @ = 4 6 , ",
"7 D < 6 M @ p + * o  .s - O , @ . 4 * & * n F 7 $ $ 4 + 4 + $ D ;.+ & ] 4 < g O + Z w 4 o # . O M @ < . q.d 4 4 2 . * 6 O 4 @ - ",
"D 7 M . M & 5 l g z z % o 4 4 & O 4 $ 4 4 @ E w h + 4 + 4 + + e., < p X + M + & + Y x & 0 X 0 M < 2 p . : o.. O 0 6 4 i 4 @ y . ",
"w q g 6 < & 5 W $ 1 8 Z - . 0 $ O O g & & f O.x @ ; 4 + 4 O $ q  .5 + M < O M $ < v q 4 6 < 2 M < n ; 4 Z o.n < @ 0 h M 6 4 @ 0 ",
"% - & O < 4 O & 2 +.s % . - q @ . & + & * : V D 4 O $ O 4 4 0 q r + . $ 5 O = 4 = F  .& . + @ O O O 4 + % w , 5 6 - @ M . & 4 y ",
"K n & + M 4 & + - O w [ 4 o x 0 . ` O O o % H q g + $ O $ . S e.1 0 $ & = ; 5 4 & > , p @ M @ 6 h 4 * p s w f < 6 0 $ + . ; & , ",
"> @ = + + 4 & M @ n s 7 O @ < = $ 4 + & S 8 E 1 M t * M O y x d  .& X 6 M + < * ;.s - O - + @ @ 6 1 - 4 [ o.1 ; @ * 4 & * & * o ",
"^ 4 M M O 4 4 R @ $ D @.+ f O 9 + < 5 6 @ x / ;.+ p 4 O & 9 O w o.O X 6 + p M * z d - W . 6 @ 0 n X $ - % d f O 6 + 4 O 4 4 . 4 ",
"^ . h O $ + 6 < . 4 o.w = , : u 4 = + 0 . D O.* 4 O & . - 6 @ . / 4 M * O O + * @.d y 4 & 6 n 0 2 X a - d c f ; . R 4 + 4 4 . o ",
"V - @ . O M 6 < @ - w s M - x u < i l 0 . D / . O * & 0 - 4 . ; ..4 + O ` & O 4 @.: 9 4 O I n . 0 0 6 @ w $.1 ; h < 4 $ & & * S ",
"V 2 4 , O M 6 < 0 U d $.O @ , @ 5 4 4 0 * 7 / . 4 * * , ;.4 M @ G ` 4 p * l 4 4 x f.S O & g.@ * 2 2 , 2 k > 1 + h M 4 . 4 O 6 f ",
"V @ + , M p @ < @ q w $.$ 4 . < & n n , 4 7 h.@ 0 . @ S x 6 4 q j.. & < . 4 6 4 7 w 9 + u @ . . 2 - n @ D E D < . + $ 6 h O 4 S ",
"F 0 + ~ < M @ < @ f 1 K 4 4 . j k.4 . 1 4 7 j.$.7 f.c s K x s K l.* & X 6 4 0 . w w 1 p h @ 4 @ 2 , . . z ^ x = 6 i O 4 6 . $ o ",
"v @ O - < + @ = @ . o $.4 4 6 J < $ W 1 6 w ..d n , k  .7 k z.q 3 4 $ X . 6 y ~ q.w 1 < 2 0 ` 0 0 k 1 n  .E x = 6 i g 4 4 * 4 0 ",
"e 6 + 9 = O @ 5 6 - 0 e & O 4 j & $ 6 o * w / z g n o 0 ;.z 9 , x.o & 5 6 n o o o.w f R y @ ` @ 0 q q - q > z 5 6 + 4 6 . O . . "
};
