/* XPM */
static char *c938e27b163b4005cb7fd66002d5cf16V0Qhd6EEIiCSBbyG[] = {
/* columns rows colors chars-per-pixel */
"63 64 168 2 ",
"   c None",
".  c #010000",
"X  c #090706",
"o  c #0C0A07",
"O  c #0C0B0B",
"+  c #120E0C",
"@  c #16110E",
"#  c #1A140F",
"$  c #1D180F",
"%  c #121212",
"&  c #1A1312",
"*  c #1B1B1B",
"=  c #260000",
"-  c #3F0000",
";  c #211716",
":  c #241C15",
">  c #251A19",
",  c #2A1E1D",
"<  c #3F1811",
"1  c #292115",
"2  c #272018",
"3  c #2D211D",
"4  c #31271A",
"5  c #352B1C",
"6  c #3A2E1D",
"7  c #3C301E",
"8  c #232323",
"9  c #2D2323",
"0  c #2B2B2B",
"q  c #332523",
"w  c #372D20",
"e  c #382826",
"r  c #332C2C",
"t  c #3D2C29",
"y  c #3E3224",
"u  c #333333",
"i  c #3D3D3D",
"p  c #3A3232",
"a  c #4E0101",
"s  c #7E0000",
"d  c #412F2C",
"f  c #423526",
"g  c #45312E",
"h  c #4D3C2A",
"j  c #493B25",
"k  c #503F29",
"l  c #473330",
"z  c #4B3532",
"x  c #4E3835",
"c  c #443A3A",
"v  c #523A37",
"b  c #543C39",
"n  c #583F3C",
"m  c #4A4339",
"M  c #5D4A36",
"N  c #5B433D",
"B  c #554535",
"V  c #655133",
"C  c #6C523F",
"Z  c #775F3C",
"A  c #7C633E",
"S  c #434242",
"D  c #4C4C4C",
"F  c #5E4340",
"G  c #535252",
"H  c #595655",
"J  c #5C5C5C",
"K  c #624643",
"L  c #664945",
"P  c #684A47",
"I  c #6C4D49",
"U  c #6D5648",
"Y  c #725B42",
"T  c #795E4A",
"R  c #76584D",
"E  c #765451",
"W  c #7A5753",
"Q  c #7C5954",
"!  c #766146",
"~  c #5F6060",
"^  c #646464",
"/  c #696867",
"(  c #6D6D6D",
")  c #6F6161",
"_  c #766666",
"`  c #716F6D",
"'  c #767676",
"]  c #7C7B7B",
"[  c #FE0000",
"{  c #B1593C",
"}  c #866B49",
"|  c #8D7047",
" . c #997A4D",
".. c #846750",
"X. c #967753",
"o. c #957857",
"O. c #95755A",
"+. c #867575",
"@. c #A07E60",
"#. c #FE6046",
"$. c #A98755",
"%. c #AD8A56",
"&. c #A3835F",
"*. c #AF8B59",
"=. c #A38353",
"-. c #B48F5B",
";. c #B6915B",
":. c #BE985F",
">. c #A68561",
",. c #AE8C65",
"<. c #AA8665",
"1. c #B48F6B",
"2. c #BC9570",
"3. c #C29B61",
"4. c #C29B72",
"5. c #CCA36D",
"6. c #D2A76B",
"7. c #D4A96A",
"8. c #CBA376",
"9. c #CDA379",
"0. c #DAAF77",
"q. c #D3A97C",
"w. c #D9AE7F",
"e. c #D6AB76",
"r. c #DCB072",
"t. c #EABB7F",
"y. c #848484",
"u. c #8B8B8B",
"i. c #898783",
"p. c #928181",
"a. c #939393",
"s. c #9C9C9C",
"d. c #AD9D9D",
"f. c #9FA0A0",
"g. c #A3A4A4",
"h. c #ACACAC",
"j. c #B4B4B4",
"k. c #B7B8B8",
"l. c #BBBCBC",
"z. c #DBAE81",
"x. c #DEB281",
"c. c #E1B485",
"v. c #E5B885",
"b. c #EBBD85",
"n. c #ECBD89",
"m. c #DEBFBF",
"M. c #EFC08B",
"N. c #F6C68F",
"B. c #F9C88E",
"V. c #F7C790",
"C. c #F8C790",
"Z. c #FFCD94",
"A. c #C3C4C4",
"S. c #C7C8C8",
"D. c #CBCCCC",
"F. c #CFD0D0",
"G. c #D3D3D3",
"H. c #D7D8D8",
"J. c #DADADA",
"K. c #DBDBDB",
"L. c #FCD9D9",
"P. c #DFE0E0",
"I. c #E5E6E6",
"U. c #EBEBEB",
"Y. c #F2F2F2",
"T. c #F3F3F3",
"R. c white",
"E. c #FEFEFE",
/* pixels */
"                                                                                                                              ",
"                                                                                                                              ",
"                                                                                                                              ",
"                                                                                                                              ",
"                                                                                                                              ",
"                                                                                                                              ",
"                                                                                                                              ",
"                                  i S S i S S i S S i S ^                                                                     ",
"                                ^ . . . . . . . . . . . u U.                                                                  ",
"                        h.* . . ; e x N E W W W W K b e , X (                                                                 ",
"                      A.y.* + @ 9 t z b I E W E I L F g e + H j.G.                                                            ",
"                      u + q d b b b t t x K E I b I W n x e > . '                                                             ",
"                    / 9 , d l l x b l l v N L P P P L z g e ; . ^                                                             ",
"                T.u X 3 d v z e z b N b v b n L Q L b t e e ; . (                                                             ",
"              a.i 9 3 e e d d v g t 2.2.b T 9.z.c.z.z.-.o.d ; . (                                                             ",
"              ' . 3 q e e e d b l g v.x.N ..n.C.Z.Z.Z.6.*.f > O (                                                             ",
"              ' . X + q e e e f O.q.C.V.w.<.U O.Z.Z.Z.U j + H k.J.                                                            ",
"              ( . O # 3 q e t z 1.Z.n.b.n.>.f T b.B.Z.l , . J H.Y.                                                            ",
"              ' . $.;.1 + q T Z.Z.Z.: . . . . . . &.Z.# . . . . /                                                             ",
"              ' . $.-.1 X > v ,.,.,.& % S G G u . Y ,.+ % D 0 X (                                                             ",
"              ( . $.;.1 . . . . . . . 0 K.E.E.f.. . . . u U.a.O `                                                             ",
"              ' . %.-.1 . . 1 A } o.# % J ( ( S . B A X * ~ i .                                                               ",
"              ' O =.%.1 . X h 7.b.Z.4 o o o o o o | 7.$ X . X O                                                               ",
"              K.S.m : X 5  .;.7.M.Z.q.8.8.8.8.8.8.7.7.%.} o G l.                                                              ",
"                U.D * X 7 %.3.7.t.B.Z.Z.Z.N.v.v.v.5.:.7.$.o `                                                                 ",
"                  T.D.u . . j 7.7.7.B.Z.Z.&.O . . . . :.%.+ /             l.O ' T.                                            ",
"                  D.h.0 . . 6 *.3.7.B.B.w.o.w 4 3 O . :.$.o /             s.* ^ S.G.S.D.G.S.S.G.K.                J.D.        ",
"                U.u . . . . . . ! 7.B.q.2 M M.Z.Z.M . 3.$.@ (             * ^ u . . . . . . . . u.E.            Y.^ O u.      ",
"                u.( ~ ~ ^ ` ( ~ ! A r.e.! <.B.Z.Z.&.Y A ! ( g.          O % ^ D u 0 0 0 0 ~ G 0 ^ u.u.u.u.u.u.u.u.G u ^ u.u.a.",
"              ( . h.J.J.I.E.Y.H.J . ;.7.B.Z.Z.Z.Z.Z.Z.# u U.            O * ^ ^ ^ / / ^ ( J.l.^ 0 . . . . . . . . i ~ 0 . . 8 ",
"          A.J y.g.P.Y.Y.T.E.E.Y.j.u.B B M M M B M M M X u H.            O * ^ ^ / ^ / s.j.H.D.j.' S S S i S S S S H ^ G i O * ",
"        U.h.. ] U.E.E.U.Y.E.E.E.U.K.u % @ % % % @ X . O i F.            * 8 ( ` ( ` ` k.G.H.J.H.g.( ( ( ( ^ J ~ ~ J J ~ G % 8 ",
"      l.S 8 . * 0 k.A.G ^ G.U.E.E.T.A.j.j.j.j.j.j.S . y.y.u 0 0 u.U.^ 0 j.k.A.A.A.A.A.u.] J.J.H.F.S.A.A.] ~ % % % % % % % X 8 ",
"      s.* O 9 9 0 s.s.8 S A.I.E.E.E.I.H.l.A.H.K.P.D . g.a.u 0 0 ( H.S . h.k.k.k.k.k.k.u.' S.S.S.S.S.A.A.` G 0 0 0 8 0 8 0 8 i ",
"    i . . c L.L.L.r . . D A.I.E.E.E.E.F.8 G D.U.E.J . g.A.E.E.E.a.. . . . . . . . . . g.K.^ ^ / / ^ ^ ~ % % T.                ",
"A.f.u O p _ L.L.L.r . . S A.I.E.E.E.E.K.J ] D.U.E.J . g.l.I.T.E.g.0 O . f 5 . # 6 y f i.g.D D D D D D D S G                   ",
"S . . c D.L.L.L.L.r . . D A.I.E.E.E.E.E.E.Y.K.U.E.J . g.j.j.G.E.K.j.u . N.4.X V 6.t.Z.y . . . . . . . O A.Y.                  ",
"i X 0 S ) +.d.+._ ] ( * S S.I.E.T.U.E.U.u.s.G.U.E.J . D G H u.G.f.H * . Y M . 4 V { #.< . . . . . . D u.J.                    ",
"S O D D O * ^ u . k.F.u S S.I.E.U.H.E.D.8 G D.U.E.J . . . . D h.^ . . . . . . . . s [ - . . . . . X u.T.                      ",
"S . * i u.' 8 O . D.G.r S S.K.I.K.J.I.H.f.j.H.K.I.G . f.h.g.] i * . u D . 1 ,.M . = a p.g.j.j.g.h.j.D.                        ",
"S . X i j.a.O X . A.D.u i j.A.A.A.A.S.A.A.A.A.A.A.D . K.    u.O X O D ^ O y x.! . O * A.                                      ",
"i O S ^ ' ( H 0 . l.G.u O * 8 8 * 8 * 8 * 8 8 * * O . K.    u.O 8 J ~ / H D 2 @ . (                                           ",
"( i D D G G / u . D.G.0 . X X O o O o X X X O O o X . I.    h.i S G G D G i . . . '                                           ",
"T.H.i . . * / 0 . A.F.u + q e e e e t e t t q t e + . P.        u.. . . . . . X . '                                           ",
"    a.J % % u J ] ] ( r > q t g l g l g g g g g l , & ` s.      A.' ' ' ' ' ' ' ' k.                                          ",
"      l.* . . ]   u X 3 e t d b b b b b b b b b b d e X 0 J.  E.                                                              ",
"      J.g.f.a.S.  u X 9 t l z b b b g d d z b b b x l X u I.                                                                  ",
"                  u X , d b b b b v q q q t v v b b b o u D.                                                                  ",
"                  u X , d b b b l d @ X O ; t l v b b 3 9 p                                                                   ",
"                  u + 3 d v b b t q 8 8 8 , q t b b b t 9 .                                                                   ",
"              y.* 9 q e d b b b : X k.J.K.u.% > b b b t 3 X ^                                                                 ",
"              ' . ; , , q l z x ; . J.    f.% & x z x , ; X D h.                                                              ",
"              ' . . . . + q t e & . D.    s.% + t q e X . . . . ( T.                                                          ",
"          H.( u . . . . X @ & @ H y.        u.H & & & . . . . . u ( D.                                                        ",
"          h.. . . . . . . . . . u.          E.a.. . . . . . . . . . h.                                                        ",
"          k.. . . . . . . . . . a.            a.. . . . . . . . . . h.                                                        ",
"          A.0 8 8 0 8 8 0 0 8                 h.0 8 8 0 0 8 8 0 8 0 k.                                                        ",
"                                                                                                                              ",
"                                                                                                                              ",
"                                                                                                                              ",
"                                                                                                                              ",
"                                                                                                                              ",
"                                                                                                                              ",
"                                                                                                                              "
};
