/* XPM */
static char *_ff6b1d520914ebcd2e3153ce18de845xS0UQhP2W4J59bxg[] = {
/* columns rows colors chars-per-pixel */
"64 64 131 2 ",
"   c #7E251F",
".  c #4B0F27",
"X  c #450C28",
"o  c #490E28",
"O  c #4E1027",
"+  c #4E1128",
"@  c #541326",
"#  c #5B1625",
"$  c #5E1825",
"%  c #531529",
"&  c #591728",
"*  c #5C1A29",
"=  c #601724",
"-  c #631A24",
";  c #6A1D22",
":  c #621E2A",
">  c #6D2124",
",  c #67222A",
"<  c #6C2429",
"1  c #742222",
"2  c #792420",
"3  c #772927",
"4  c #7E2B25",
"5  c #722728",
"6  c #74292A",
"7  c #7A2C2A",
"8  c #7E302B",
"9  c #80271E",
"0  c #85291E",
"q  c #8B2C1D",
"w  c #912F1C",
"e  c #8F301E",
"r  c #95311B",
"t  c #9C341A",
"y  c #9F381D",
"u  c #A43B1D",
"i  c #A93F1C",
"p  c #842D24",
"a  c #8A2E20",
"s  c #802E28",
"d  c #863126",
"f  c #8C3223",
"g  c #843229",
"h  c #8A3428",
"j  c #88352A",
"k  c #8A372C",
"l  c #8A362A",
"z  c #8F382A",
"x  c #8F392B",
"c  c #963520",
"v  c #973722",
"b  c #903626",
"n  c #903627",
"m  c #923522",
"M  c #933826",
"N  c #943927",
"B  c #983822",
"V  c #9B3C25",
"C  c #9D3C24",
"Z  c #9E3F27",
"A  c #9B3B24",
"S  c #943B29",
"D  c #953C29",
"F  c #953D2A",
"G  c #963E2A",
"H  c #963E2B",
"J  c #973F2B",
"K  c #953D2A",
"L  c #9B3F29",
"P  c #9A3F29",
"I  c #A33E21",
"U  c #A9401F",
"Y  c #AA401E",
"T  c #99402B",
"R  c #9F4229",
"E  c #9D412A",
"W  c #99412C",
"Q  c #9B422C",
"!  c #9B422C",
"~  c #A44024",
"^  c #A54326",
"/  c #A54326",
"(  c #A84021",
")  c #AB4221",
"_  c #AD4320",
"`  c #AA4423",
"'  c #AE4421",
"]  c #AF4521",
"[  c #AC4422",
"{  c #AE4522",
"}  c #AE4623",
"|  c #A84224",
" . c #AB4727",
".. c #AE4725",
"X. c #AC4726",
"o. c #AB4423",
"O. c #AF4926",
"+. c #AF4926",
"@. c #A04128",
"#. c #A44429",
"$. c #A64629",
"%. c #A1462D",
"&. c #A34428",
"*. c #A9482A",
"=. c #AC4A2A",
"-. c #AC4A2A",
";. c #B04622",
":. c #B24822",
">. c #B24823",
",. c #B14925",
"<. c #B14B27",
"1. c #B54B24",
"2. c #B74C24",
"3. c #B74F27",
"4. c #B24822",
"5. c #B84D25",
"6. c #B14E2B",
"7. c #BA5027",
"8. c #BE5227",
"9. c #BE5227",
"0. c #B5522D",
"q. c #B8542E",
"w. c #B8542E",
"e. c #C25629",
"r. c #C75A2A",
"t. c #C65A2A",
"y. c #CB5E2C",
"u. c #CA5D2B",
"i. c #CE612D",
"p. c #D0622D",
"a. c #D2642E",
/* pixels */
"8 7 8 6 , 8 * X , 8 7 < @ @ @ % X X * 8 8 6 - ; ; ; ; 1 5 . X X 7 g 7 7 g g 7 < @ X X * 8 8 8 8 8 8 8 8 7 6 X X . : 5 * 7 7 & @ ",
"i i I 4 y i e 7 ..i i u w w w w ; %.t i i | I t r t t y u   & l I i i i I I i ,.z # - O.i i i I i I 2.] i y - & 9 y y p i I w   ",
"t t t r t t w g >.t t t t t t t   0.t t r u t t t t t t t r - ! t t t t t t t y ]   < 9.t t t t t t y r t r   7 ] t t r t t t t ",
"t t t t t r r g _ t r w t t t t   w.t t t t t t t t t t t t 0 2 t t t t t t t r t r > 2.t t t t t t t t t t   ; u r t t t t t t ",
"t t t t t t 9 4 i t w 1 2 w t t 2 C t t t t t t t t t t t t q - t u t t t t u r t q - t t t t t t t t 0 t t   ; t t t t t t t t ",
"q q q ; ; ; # + 2 q q 0 @ = ; ; @ @ 1 9 q q q q q 0 q 0 q ; @ + q q 0 a q q 0 1 ; @ O ; q q q q 9 ; ; & 1 # . . - - # ; 1 q q q ",
"P S F S P S S S H + . < S S S 3 - = # # = O o = - 3 S S P F Q F . o + j S H P S S F F T T F + X < F F H S S S S F F S F l . # F ",
"u u u u u u u u u g ; r u u u r r r 1 1 r 0 # w r y u u u u 4.u w = I u u i Y u y u i ] u u q * ..u _ i u u u u u u u _ u ; q u ",
"t t t t t t t t t 2 ; r t t t t t t 1 I I 0 # t t t t t t t t t t - ,.y t t r t t t t t t t t 1 O.t t t t t t t t t t t t   w r ",
"t t t t t t t t t 2   t t t t t t t t t u q # t t t t t t t t t t # 2 t t t t t t t t t t t t 2 O.t t t t t t t t t t t t ;   t ",
"t t r t t t r w w # 9 t t r t t t t t r t 9 ; r t t t t t t w t w # q t t t t r t t t t r t q ; q r r r t t r t t r r r t - D u ",
"    1         = # X O       2   2 2 2 #   . X   2 2 2 2 2 1 @   - X & 2 2 2     2 2         X X X >                     > X # p ",
"g M * < -.-.-.-.-.q q q 9 ; ; . 7 -.-.-.-.-.-.-...-.I ; ; ; 1 # O Z -.-.-.-.O.-.*.-.P # + x -.-.*.-.N ; ; ; = - @ + # ; ; 1 $.-.",
"r u p -.t t t t t t t t t t w & p t t t t t t t r t t t t r t t ; t t t t t t t t t t t : t t t t t t t t 9 b *.s ; t t t t t t ",
"t r   *.t t t t t t t t t t w - ,.t t t t t t t t t t t t u I r ; t t t t t t t t t t t # - t t t t t r p h Y t   ; t t t t t t ",
"t r   B t t t t t t t 0 t t q & p t t t t t t t t t t t r y ( p - t t t t t t t t t t t - w r t t t t u 2.Y t t q ; t t t t t t ",
"9 - O   9 0 r t r t ( 4 2 0 ; + ; r q r t t t t t t t t t 0   p # r t r q r e t t   r q @   ; r t t t t t t t q   @ 9 q 0 w t t ",
". X X X . . @ @ # & # & X @ . X . & @ @ # @ @ # @ # # @ # . X X X @ @ @ @ @ @ @ @ X @ @ X o X @ @ # # @ @ # # + X X . . . @ @ # ",
"9.9.9.9.9.9.B   ; . g 8.8.8.8.9.e.5.e.5.p # . * 4   9 9               q 9.1 < 3.8.i.8.8.i.t.            * % &.e.7.~ O.9...C 9.9.",
"t t t t t t t t w & *.t t t t t t t t 9 > @.*.g >.t t t t t t t t t t t t q S u t u t t u t t t r t t i 7 P u t t t t t t t t t ",
"t t t t t t t t q . -.t t t t t t t t t Y u r g 4.t t t t t t t t t t t t q d t t t t t t t t t t t t t * B t t t t t t t t t t ",
"t t t t t t t t r @ r t t t t r q r t t t t r - r t t t t t t t t t t t t 9   r t t t t t t t t t t r u 6 q t t t t t t t t r r ",
"t t r t t t r 9   + ; t t t   ; 1 w t t t 0 - X &   t t t t t t y r 9 r   # +   e t t t t t r q 0     2 * ; 2 2 t t t t t t q   ",
"@ @ @ @ < 8 * X , 8 8 8 8 8 g 7 . X * 8 8 8 8 8 : @ @ . @ . X X 8 8 8 8 8 5 @ @ @ X X # 8 8 8 8 8 8 . @ @ @ X X , 8 6 * 8 3 # . ",
"q q q 1 ` 4.f < $.4.e.4.:.:.:.Y ; l m 2.u.2.>.>.t 0 0 0 0 9 1 7 :.:.:.:.:.Y q 0 q   * / :.:.:.:.:.] q q q 0   , $.4.` @.4.} N > ",
"r t t ( t t r j 4.t t t t t t t 2 q.t t u u t t t t t t t t q 3 t t t t t t t t t t 5 9.t t t t t t t t t t r , y t t y t r P ` ",
"t t t t t t r j 4.t t r t t t t 2 w.t t t t t t t t t t t t 0 ; t t t t t t t t t t - p t t t t t t t t t t t - r t t t t ( U y ",
"t t t t t r r 4 I t r ; r t t t 2 w.t t t t t t t t t t t t q   t t t t t t t t t t #   t t t t t t t q t t t ; t t t t t t t t ",
"q q q q q q ; + 2 q q 0 $   q 0 @ * 1 9 q q 0 q q q 0 q q ; @ @ q q q q q q q q q # . - 0 q ;   q q ; # ; & @ +     - q q q q q ",
"T Q F S S Q x ; = . + @ $ # - - = - - ; F * % F F F S M F P F N + X # l F F F F S S S 7 # @ + X < D F F S M D F l - $ = # X + - ",
">.e.i u u 2.y r r   R r r r r r r r r t u 0 F u u u u u u u u u r @ 4 u y u u u u u u t r r 0 & ` u u u u u u u t r t r q #   r ",
"t t t t t t t t t & *.t t t t t t t t t r q Q t t t t t t t r t t #   r t t t t t t t t t r t 2 ..t t t t t t t t t t w r > r r ",
"t t t t t t t r r - =.t t t t t t t t t t q s t t t t t t t t t t #   t t t t t t t t t t t t ;   t t t t t t t t t t Y V <   t ",
"t t t r t t r q r   f t t t t r t u r 9 w 1 & r t t t t t t r t 0 @ q r t t t t t r t t r r q $ q t t t t t t t t t t r y > 9 r ",
"              ; - O @ 2             ; @ = . o ; 2 2       1 # ; # X #   2 2             - $ + X + 1   2 2 2 2     2 1 $ $ X @ ; ",
"$ $ @ , =.*.=. .=.*.=.$.2 ; - O 7 $.-.<.6.O.-...p ; ; ; ; ; ; = + R *.*.=.=.*.$.*.; - @ . g O.w.0.-.*.*.=.=.*.O.5 @ , 0.0.$.7 O.",
"t t   =.t t t t t t t t t t t ; p t t y u t t t t t t t t t t t 8 Y t t t t t t t t t r - u y >.i y t t t t t t r g i i ] t Y t ",
"t t   / t t t t t t t t t t t   I t t t t t t t t t t t t t t r 3 u t t t t t t t t t t 5 4.t t t r t t t t t t r g i t t t t t ",
"r r 1 q t t t t t t t r t t t ; p t t r w t t t t t t t t t t 1 ; r t t t r t t t t t r 5 ] t t t t t t t t t t q 3 y t t t t t ",
"0   X   t t t t t t e   9 w   @ ; q 2 ; w t t t t t t t q   1 # @ 9 t r e r e r 0     > @ 2   t t t t t t t w 9 - @ 9 q t t t q ",
"+ X X + ; ; - ; - ; ; # . # O X @ @ @ . = ; - ; ; ; ; - & . X X X @ - - # $ # $ @ X X X X + . ; ; ; ; - ; ; # + X X @ & ; ; - @ ",
"r.i.8.9.9.i.1.0   & 8 9.9.9.e.9.9.a     9   1 * | 5.8.8.9.9.9.9.8.8.8.8.8.1 5 3.8.8.9.9.9.7.9.9.7.7.    . s e.9.e.a.e.9.,.&.9.9.",
"y Y t t t u t t t 2 -.t t t t t t t t t t t 0 g >.t t t t t t t t t t t t q h y t t t t t t t t t t t t -  .t t t i t t t u r t ",
"t t t t t t t t t ; -.t t t t t t t t t t w - , C t t t t t t t t t t t t q 5 t t t t t t t t t t t t t ; *.t t t t t t t t t t ",
"t t t t t t t r r # r t t t t t t t t t t t t & 0 w t t t t t t t t r t t q h y t t t t t t t t t t t t ; *.t r t t t t t q q w ",
"t t t t t t t 0   & ; t u 9.9.b r t t t t t   X # = 9 q t t t r t   ; r t ; +   e t t t t t t t t 9 ;   @ 5   ; 9 r t t t 0 = @ ",
", * , * % , + X % , : : : : : * . X % : : : : : & . . . . . X X , , * , : , * , , X X + , , * , : : : : : * X X * : : : : : * # ",
"4.4.Y T ^ O.e < ` 9.5.>.>.>.4.` ; k r e.4.4.4.] r 0 q q 0 p 1 3 Y i.e.4.4.} 2.8.]   * / } e.u.4.4.4.9.5.4.I # , $.9.u.4.} 4.] $.",
"t t t ` t t r g 4.t t t t t t t   0.t y t t t t t t t t t t q 3 t u u t t t t t t t 5 8.t y y t t t t t t t   8 4.t u t t t t t ",
"t t t t t t r 1 y t t t t t t t   w.t t t t t t t t t t t t q X t t t t t t t t y t #   t t t t t t t t t u w 4 4.t t t t t t t ",
"t t t t t t q   t r t t t t t t   0.r r t t t t t t t t t t q , t t t t t t t t t t # ; t t t t t t t t r r 0 < u t t t t t t t ",
"q q q q q q ; +   q q q q q q q @ * $ -   q q q q q q q 1 * @ & q q q q q q q   ; @ o # 0 q q q q q   ;   & + X > ; - 0   ; q q ",
"! ! 3 X 8 l 7 Q Q X X , ! W ! ! Q Q Q , # o X W Q Q ! ! ! F - # X X X @ @ # # # # 5 ! ! x # X X + # # # d Q ! ! ! ! Q Q j X % ! ",
"u U ` -.` ~ ^ i i g Q r U i u i U U U V ; , l Y i i 7.i i i r w q $ A w r r r w r t u Y u e ; + 2 r w r t i I i I i i i y ; a i ",
"t t t t t t t t r 2 8 } t t t t t t O. .r b W t t t t t r t t t t # p t t t t t t t t t t t t 1 ,.t t t t t t t t t t t t 1 r r ",
"t t t t t t t t t 2 =.t t t t t t t t t t q   r t t t r y r t t t $ U t t t t t t t t t t t t ; > t t t t t t t t t t t t ; 1 r ",
"t t t t t r t t r - s r t r r t r t r q 0     r t t t t t r r t q # e t t r t t r t t r t r   #   r r t t r t r t t t r r - = w ",
"  1           > - . . -             ; @ @ O X     1         # ; # X #                     > O X X $ ;           2 2 1 1 = . . 1 ",
"g S # , *.*.O.O.*.-.2 ; ; ; # . - > d O.6.=.=.=.$.=.*.=. .6.R @ + Q -.w.=.=.$.*.O.0.T @ O x =.=.*.*.*.-.*.R M ; # % 5 -.-.-.-.-.",
"t t   -.t t t t t t u t u q M < b t t u U t t t t t t t u U t t 8 U Y 2.t t t t t Y t t 5 } t t t t t t t t t t 9 g 5.t t t t t ",
"t t   *.t u Y i i u Y Y i ] i 3 R t t t t t t t t t t t t e e r 8 u t t t t t t t t t t 5 } t t t t t t t t t t w j u t t t t t ",
"t r   B t t t t t t r r t t r ; 0 t t t t t t t t t t t t U M - 8 Y t r r t t t t t t t > u t t t t t t t t t t w g i t t t t t ",
"e > X   r r t t t t 9 ; w w 0 # ; t r t t t t t t t t t r q > - 5 y r q ; q r t t q q q - r r t t t t t t t r q   5 u t t t t t ",
"O X X O ; # ; ; ; ; 5 O . & @ X @ ; $ $ ; ; ; - > - ; ; @ O X X X $ @ + O O # > ; X X X X # @ ; ; ; ; ; ; ; # . X X = ; ; ; - ; "
};
